<svg width="51" height="32" viewBox="0 0 51 32" fill="none" xmlns="http://www.w3.org/2000/svg">
<path d="M0.0942383 22.2713V6.21482L11.4128 0.596191L22.6455 6.12448V22.2713H17.9167V10.9979H4.8773V22.2713H0.0942383Z" fill="#017ABD"/>
<path d="M27.781 6.12425V22.271H24.0954V5.47838L17.2393 2.0232L18.4181 1.43604L27.781 6.12425Z" fill="#0A609C"/>
<path d="M24.0006 2.18164L22.8218 2.7688L29.6779 6.22399V22.2714H33.3635V6.87438L24.0006 2.18164Z" fill="#155487"/>
<path d="M29.6056 2.88623L28.4268 3.46887L35.2829 6.92406V22.2714H38.9685V7.57445L29.6056 2.88623Z" fill="#1E456E"/>
<path d="M35.3556 3.58594L34.1768 4.17309L41.0329 7.62827V22.271H44.7185V8.27415L35.3556 3.58594Z" fill="#243B58"/>
<path d="M40.9694 4.2002L39.7905 4.78736L46.6467 8.24254V22.271H50.3322V8.88841L40.9694 4.2002Z" fill="#243B58"/>
<path d="M8.27831 13.4912H5.83936V15.9302H8.27831V13.4912Z" fill="#EF4933"/>
<path d="M8.27831 16.6616H5.83936V19.1006H8.27831V16.6616Z" fill="#EF4933"/>
<path d="M8.27831 19.8369H5.83936V22.2759H8.27831V19.8369Z" fill="#EF4933"/>
<path d="M11.4624 16.6616H9.02344V19.1006H11.4624V16.6616Z" fill="#EF4933"/>
<path d="M11.4624 19.8369H9.02344V22.2759H11.4624V19.8369Z" fill="#EF4933"/>
<path d="M14.6421 19.8369H12.2031V22.2759H14.6421V19.8369Z" fill="#EF4933"/>
<path d="M10.126 27.3794H7.36181C6.95532 27.3794 6.75207 27.1671 6.75207 26.7471V26.3044C6.75207 25.9025 6.95983 25.7037 7.37988 25.7037H11.5216V24.7417H7.23986C6.27783 24.7417 5.79456 25.225 5.79456 26.187V26.8555C5.79004 27.831 6.27331 28.3188 7.23534 28.3188H9.94981C10.3924 28.3188 10.6137 28.5311 10.6092 28.9512V29.859C10.6092 30.2971 10.3924 30.5094 9.94981 30.5094H5.79004V31.4804H10.1305C11.0925 31.4804 11.5803 30.9926 11.5803 30.0306V28.7118C11.5803 27.8175 11.097 27.3704 10.1305 27.3704L10.126 27.3794Z" fill="#BCC1D1"/>
<path d="M27.5732 29.9043C27.5732 30.3153 27.3564 30.523 26.9273 30.523H23.1063C22.6772 30.523 22.465 30.3017 22.465 29.8636V24.7373H21.5029V30.0443C21.5029 31.0063 21.9862 31.4896 22.9482 31.4896H27.0945C28.0565 31.4896 28.5578 31.0063 28.5849 30.0443V24.7463H27.5732V29.9088V29.9043Z" fill="#BCC1D1"/>
<path d="M32.2029 29.1274L31.7603 30.0443H34.678L34.2263 29.1274H32.2029Z" fill="#EF4933"/>
<path d="M32.8666 24.7598L29.5649 31.4804H30.667L33.2234 26.2638L35.7978 31.4849H36.8728L33.5982 24.7598H32.8666Z" fill="#BCC1D1"/>
<path d="M42.1616 28.3324C43.1236 28.3324 43.6024 27.8401 43.6024 26.869V26.1915C43.6024 25.234 43.1191 24.7507 42.1616 24.7417H37.8257V31.4804H38.7832V25.7037H42.0216C42.4326 25.7037 42.6404 25.907 42.6404 26.318V26.7787C42.6404 27.1987 42.419 27.3974 41.9719 27.3794H39.2936V28.3279L42.4281 31.4804H43.7243L40.6982 28.3324H42.1571H42.1616Z" fill="#BCC1D1"/>
<path d="M50.2604 27.3706H46.5522V28.3191H50.2604V27.3706Z" fill="#EF4933"/>
<path d="M4.57922 27.6367H3.021V28.5852H4.57922V27.6367Z" fill="#EF4933"/>
<path d="M50.3324 24.7417H45.0615V31.485H50.3324V30.5229H46.019V25.7037H50.3324V24.7417Z" fill="#BCC1D1"/>
<path d="M18.6081 24.7417H14.4619C13.4999 24.7417 13.0166 25.225 13.0166 26.187V30.0442C13.0166 31.0062 13.4999 31.4895 14.4619 31.4895H17.5783L16.7247 30.5274H14.629C14.1954 30.5274 13.9786 30.3106 13.9786 29.8816V26.3541C13.9786 25.9205 14.1954 25.7037 14.6335 25.7037H18.441C18.8746 25.7037 19.0869 25.9205 19.0869 26.3451V29.9312C19.0869 30.279 18.9469 30.4732 18.6759 30.5139L19.403 31.3314C19.8366 31.1191 20.0534 30.6855 20.058 30.0397V26.1735C20.058 25.2205 19.5747 24.7417 18.6081 24.7417Z" fill="#BCC1D1"/>
<path d="M19.6236 31.9503H18.35L16.4575 29.814H17.7312L19.6236 31.9503Z" fill="#EF4933"/>
<path d="M2.09069 28.6352C2.10876 28.2423 1.92809 28.0391 1.54418 28.0933C1.44482 28.1068 0.618284 28.1971 0.613767 28.2333C0.613767 28.2242 0.613767 26.0518 0.613767 26.0518H0.0898438V31.44C0.0898438 31.5439 1.15124 31.4491 1.26867 31.431C1.70678 31.3587 2.10424 31.1555 2.09069 30.6542C2.09069 30.6496 2.05004 29.4392 2.09069 28.6352ZM1.52612 30.5367C1.52612 30.7806 1.3319 30.9748 1.08801 30.9748H0.600217V28.5946H1.53063V30.5367H1.52612Z" fill="#BCC1D1"/>
</svg>
