<svg width="157" height="41" viewBox="0 0 157 41" fill="none" xmlns="http://www.w3.org/2000/svg">
<path d="M66.5674 3.17285H71.1948C72.4449 3.17285 73.5249 3.39828 74.4307 3.84914C75.3365 4.29999 76.0313 4.94963 76.5149 5.79806C76.9965 6.64649 77.2383 7.65272 77.2383 8.82085C77.2383 9.98897 77.0006 11.0136 76.5231 11.8662C76.0456 12.7207 75.355 13.3724 74.4471 13.8233C73.5413 14.2742 72.4572 14.4996 71.1948 14.4996H66.5674V3.17285ZM70.9899 12.1121C72.0924 12.1121 72.9163 11.8395 73.4634 11.2924C74.0106 10.7472 74.2832 9.92134 74.2832 8.8188C74.2832 6.64444 73.1868 5.55829 70.9919 5.55829H69.5615V12.11H70.9919L70.9899 12.1121Z" fill="#18469C"/>
<path d="M81.7574 2.45801V5.05043H78.751V2.45801H81.7574ZM78.8309 6.41734H81.7102V14.4959H78.8309V6.41734Z" fill="#18469C"/>
<path d="M92.0304 6.41762V13.9879C92.0304 15.3138 91.6329 16.3242 90.8377 17.0168C90.0426 17.7116 88.8765 18.0579 87.3395 18.0579C86.0238 18.0579 84.8844 17.8243 83.9191 17.3591L84.3495 15.2605C84.827 15.4716 85.3168 15.6397 85.8209 15.7606C86.3251 15.8815 86.7985 15.943 87.2452 15.943C87.9031 15.943 88.3887 15.8016 88.7002 15.5208C89.0138 15.24 89.1696 14.8015 89.1696 14.2092V13.0165C88.9052 13.3669 88.5465 13.6641 88.0957 13.908C87.6448 14.1518 87.1653 14.2748 86.6571 14.2748C85.9685 14.2748 85.3496 14.1088 84.8044 13.7748C84.2573 13.4407 83.831 12.9694 83.5236 12.3587C83.2162 11.75 83.0625 11.0409 83.0625 10.2355C83.0625 9.43015 83.2162 8.73748 83.5236 8.12882C83.831 7.52017 84.2573 7.04472 84.8044 6.70453C85.3496 6.36434 85.9685 6.19629 86.6571 6.19629C87.1981 6.19629 87.6899 6.30695 88.1367 6.53033C88.5834 6.75371 88.9257 7.05496 89.1696 7.43614V6.41762H92.0325H92.0304ZM88.7392 11.6271C89.0261 11.293 89.1675 10.8299 89.1675 10.2355C89.1675 9.64124 89.024 9.20883 88.7392 8.87478C88.4523 8.54074 88.0547 8.37474 87.5465 8.37474C87.0382 8.37474 86.6366 8.53869 86.3456 8.86863C86.0545 9.19653 85.909 9.65353 85.909 10.2355C85.909 10.8176 86.0566 11.2807 86.3537 11.6189C86.6509 11.959 87.0485 12.1271 87.5465 12.1271C88.0445 12.1271 88.4523 11.9611 88.7392 11.6271Z" fill="#18469C"/>
<path d="M96.6412 2.45801V5.05043H93.6348V2.45801H96.6412ZM93.7167 6.41734H96.5961V14.4959H93.7167V6.41734Z" fill="#18469C"/>
<path d="M103.846 12.2066V14.3851C103.452 14.5449 102.954 14.6228 102.35 14.6228C101.258 14.6228 100.428 14.3154 99.8599 13.7006C99.2922 13.0858 99.0094 12.2312 99.0094 11.141V8.53214H97.499V6.41721H99.0094V4.5892L101.889 3.66699V6.41926H103.829V8.53419H101.889V11.143C101.889 11.5242 102.003 11.8131 102.231 12.0099C102.458 12.2066 102.743 12.305 103.081 12.305C103.272 12.305 103.526 12.2722 103.846 12.2087V12.2066Z" fill="#18469C"/>
<path d="M113.438 6.41762V14.4961H110.608V13.3997C110.374 13.7809 110.036 14.0822 109.589 14.2973C109.145 14.5146 108.657 14.6232 108.126 14.6232C107.438 14.6232 106.823 14.4531 106.282 14.115C105.741 13.7768 105.319 13.2911 105.017 12.6599C104.716 12.0287 104.564 11.2992 104.564 10.4733C104.564 9.64739 104.718 8.89323 105.026 8.24768C105.333 7.60009 105.757 7.098 106.298 6.73732C106.839 6.37663 107.448 6.19629 108.126 6.19629C108.657 6.19629 109.141 6.31105 109.581 6.53853C110.022 6.76601 110.362 7.07136 110.606 7.45254V6.41967H113.436L113.438 6.41762ZM110.192 11.9529C110.467 11.6025 110.606 11.1004 110.606 10.4425C110.606 9.78469 110.469 9.26416 110.192 8.90757C109.915 8.55304 109.524 8.37474 109.016 8.37474C108.507 8.37474 108.124 8.55713 107.839 8.92397C107.552 9.28875 107.409 9.80723 107.409 10.4753C107.409 11.1434 107.546 11.6189 107.823 11.9631C108.098 12.3074 108.497 12.4796 109.016 12.4796C109.534 12.4796 109.917 12.3054 110.192 11.9549V11.9529Z" fill="#18469C"/>
<path d="M115.155 2.79297H118.035V14.4988H115.155V2.79297Z" fill="#18469C"/>
<path d="M66.9355 21.6524H72.2454C76.0695 21.6524 78.6906 23.9559 78.6906 27.4951C78.6906 31.0343 76.0695 33.3378 72.2454 33.3378H66.9355V21.6504V21.6524ZM72.1101 31.1184C74.43 31.1184 75.9506 29.733 75.9506 27.4951C75.9506 25.2572 74.432 23.8719 72.1101 23.8719H69.6386V31.1184H72.1101Z" fill="#EF4933"/>
<path d="M80.2256 21.6532C80.2256 20.8355 80.8773 20.2002 81.8446 20.2002C82.8119 20.2002 83.4636 20.8007 83.4636 21.6019C83.4636 22.4709 82.8119 23.1041 81.8446 23.1041C80.8773 23.1041 80.2256 22.4688 80.2256 21.6511V21.6532ZM80.5412 24.3583H83.1459V33.3406H80.5412V24.3583Z" fill="#EF4933"/>
<path d="M84.6993 32.504L85.5682 30.635C86.3695 31.1534 87.5889 31.5039 88.6894 31.5039C89.8924 31.5039 90.3412 31.1862 90.3412 30.6862C90.3412 29.2168 84.9145 30.719 84.9145 27.1306C84.9145 25.4276 86.4495 24.2246 89.0726 24.2246C90.3084 24.2246 91.6773 24.5095 92.5278 25.0095L91.6589 26.8621C90.7736 26.3621 89.8903 26.194 89.0706 26.194C87.9024 26.194 87.4004 26.5609 87.4004 27.0281C87.4004 28.5651 92.827 27.0773 92.827 30.6186C92.827 32.2888 91.2736 33.4733 88.5869 33.4733C87.0684 33.4733 85.5313 33.0552 84.6973 32.504H84.6993Z" fill="#EF4933"/>
<path d="M100.01 24.2218V26.6257C99.7926 26.6093 99.6266 26.5929 99.4258 26.5929C97.9892 26.5929 97.0383 27.3778 97.0383 29.0972V33.3373H94.4336V24.355H96.9215V25.5395C97.5568 24.6706 98.6245 24.2197 100.01 24.2197V24.2218Z" fill="#EF4933"/>
<path d="M110.677 24.3574V33.3397H108.206V32.272C107.521 33.0569 106.519 33.475 105.419 33.475C103.164 33.475 101.578 32.2064 101.578 29.4357V24.3595H104.183V29.0504C104.183 30.5526 104.851 31.2207 106.003 31.2207C107.154 31.2207 108.073 30.4522 108.073 28.8004V24.3595H110.677V24.3574Z" fill="#EF4933"/>
<path d="M122.882 28.8479C122.882 31.6699 120.929 33.4733 118.408 33.4733C117.29 33.4733 116.371 33.1229 115.703 32.3871V36.5781H113.099V24.3578H115.587V25.3927C116.238 24.6078 117.206 24.2246 118.408 24.2246C120.929 24.2246 122.882 26.028 122.882 28.85V28.8479ZM120.245 28.8479C120.245 27.2945 119.259 26.36 117.958 26.36C116.656 26.36 115.671 27.2945 115.671 28.8479C115.671 30.4013 116.656 31.3358 117.958 31.3358C119.259 31.3358 120.245 30.4013 120.245 28.8479Z" fill="#EF4933"/>
<path d="M130.412 32.9047C129.877 33.288 129.092 33.4724 128.291 33.4724C126.17 33.4724 124.934 32.3862 124.934 30.2508V26.562H123.549V24.5577H124.934V22.3711H127.539V24.5577H129.777V26.562H127.539V30.218C127.539 30.9865 127.957 31.4026 128.658 31.4026C129.041 31.4026 129.426 31.2857 129.709 31.0685L130.41 32.9047H130.412Z" fill="#EF4933"/>
<path d="M130.931 28.8471C130.931 26.1419 133.017 24.2217 135.872 24.2217C138.726 24.2217 140.796 26.1419 140.796 28.8471C140.796 31.5522 138.726 33.4724 135.872 33.4724C133.017 33.4724 130.931 31.5522 130.931 28.8471ZM138.159 28.8471C138.159 27.2936 137.173 26.3591 135.872 26.3591C134.57 26.3591 133.568 27.2936 133.568 28.8471C133.568 30.4005 134.57 31.335 135.872 31.335C137.173 31.335 138.159 30.4005 138.159 28.8471Z" fill="#EF4933"/>
<path d="M148.11 24.2218V26.6257C147.893 26.6093 147.727 26.5929 147.526 26.5929C146.09 26.5929 145.139 27.3778 145.139 29.0972V33.3373H142.534V24.355H145.022V25.5395C145.657 24.6706 146.725 24.2197 148.11 24.2197V24.2218Z" fill="#EF4933"/>
<path d="M148.827 32.504L149.696 30.635C150.497 31.1534 151.717 31.5039 152.817 31.5039C154.02 31.5039 154.471 31.1862 154.471 30.6862C154.471 29.2168 149.044 30.719 149.044 27.1306C149.044 25.4276 150.581 24.2246 153.202 24.2246C154.438 24.2246 155.807 24.5095 156.658 25.0095L155.789 26.8621C154.903 26.3621 154.018 26.194 153.2 26.194C152.032 26.194 151.53 26.5609 151.53 27.0281C151.53 28.5651 156.957 27.0773 156.957 30.6186C156.957 32.2888 155.403 33.4733 152.717 33.4733C151.198 33.4733 149.661 33.0552 148.827 32.504Z" fill="#EF4933"/>
<path d="M35.8698 35.6187C30.646 30.1305 25.5308 24.5276 20.346 18.9985C17.9298 16.4204 15.0362 15.6909 11.8105 16.9307C8.19134 18.3222 5.9678 22.4803 6.66253 26.3229C7.3839 30.3129 10.7899 33.3193 14.5976 33.3296C18.395 33.3378 21.8789 30.2986 22.5654 26.3618C22.6474 25.8884 22.6618 25.4027 22.7232 24.751C24.0574 26.081 25.2706 27.2881 26.4838 28.4972C26.824 28.8354 27.1621 29.1756 27.5003 29.5157C28.5495 30.5773 28.57 30.5896 27.8651 31.9709C25.5493 36.4999 21.7928 38.8505 17.1449 39.7973C9.70991 41.3118 2.3794 36.3954 0.463265 28.6366C-1.66395 20.0129 3.76066 11.2684 12.1035 9.91786C15.696 9.33585 19.1 9.87278 22.2027 12.0041C22.3113 12.0799 22.4384 12.1271 22.6823 12.2521V0.0256748C24.4303 0.0256748 26.076 -0.0460522 27.7114 0.050267C28.8754 0.119945 29.4881 1.05445 29.4881 2.44185C29.4881 7.79064 29.5004 13.1394 29.4758 18.4882C29.4738 19.1543 29.6623 19.6154 30.1111 20.0744" fill="#18469C"/>
<path d="M30.1094 20.0752C33.5974 23.6574 37.0648 27.2663 40.5364 30.867C45.0573 35.5559 52.0947 33.2381 53.892 27.1741C55.0151 23.389 53.308 19.3805 49.861 17.3619C46.6455 15.4785 42.6268 16.3023 40.0794 19.3702C38.7105 21.0199 38.1858 22.5119 38.0547 25.2375C37.8272 25.0428 37.6448 24.9075 37.485 24.7456C35.9644 23.2332 34.4642 21.6962 32.9149 20.2145C32.462 19.7821 32.4292 19.4317 32.6588 18.8702C34.9971 13.1443 40.5057 9.52106 46.5349 9.7096C49.0925 9.78953 51.4533 10.4904 53.6215 11.9229C53.7752 12.0254 53.9412 12.1053 54.2589 12.2836V0.0202997C55.9864 0.0202997 57.6546 -0.0268353 59.3207 0.0387438C60.2429 0.0735826 60.8516 0.807248 60.9807 1.79708C61.0094 2.02661 60.9991 2.26228 61.0012 2.49386C61.0012 9.84896 61.0053 17.2041 61.0012 24.5571C61.0012 26.6659 60.6979 28.7316 59.9417 30.6867C58.0542 35.5785 54.4371 38.3307 49.74 39.5624C44.4671 40.9457 39.7495 39.6915 35.8721 35.6174" fill="#EF4933"/>
</svg>
