<svg width="82" height="17" viewBox="0 0 82 17" fill="none" xmlns="http://www.w3.org/2000/svg">
<path d="M10.9762 5.29334C10.9762 4.39769 10.9762 3.49792 10.9762 2.60227C10.9762 2.22255 10.7698 1.98316 10.4602 1.97903C10.1631 1.97903 9.92781 2.24319 9.92781 2.59402C9.92781 4.38945 9.92781 6.18074 9.92781 7.97616C9.92781 8.36001 10.1259 8.59941 10.4355 8.60354C10.6914 8.60767 10.9762 8.26922 10.9762 7.94728C10.9762 7.05989 10.9762 6.17662 10.9762 5.28922M6.56809 5.26858C6.56809 6.17661 6.56809 7.08465 6.56809 7.99268C6.56809 8.34763 6.77446 8.60766 7.051 8.61179C7.31928 8.61592 7.61645 8.28985 7.61645 7.97616C7.61645 7.3488 7.61645 6.71731 7.61645 6.08994C7.61645 4.92601 7.61645 3.76207 7.61645 2.59814C7.61645 2.0492 7.28626 1.82218 6.8405 2.05332C6.61349 2.16889 6.56397 2.37526 6.56397 2.61465C6.56809 3.49792 6.56397 4.38531 6.56397 5.26858M4.25674 5.29334C4.25674 4.38531 4.25674 3.47728 4.25674 2.56925C4.25674 2.21016 4.06688 1.97078 3.78621 1.97491C3.423 1.97904 3.20837 2.19366 3.20837 2.57338C3.20837 4.38944 3.20837 6.20138 3.20837 8.01744C3.20837 8.35176 3.42713 8.61178 3.6789 8.60766C4.0256 8.5994 4.25674 8.36414 4.25674 8.01331C4.25674 7.10528 4.25674 6.19726 4.25674 5.28922M13.2834 5.29334C13.2834 6.21376 13.2834 7.13417 13.2834 8.05459C13.2834 8.38478 13.5187 8.61592 13.8447 8.61179C14.113 8.60766 14.3318 8.36001 14.3318 8.0422C14.3318 6.21376 14.3318 4.38119 14.3318 2.55275C14.3318 2.21843 14.113 1.97904 13.8158 1.97491C13.5063 1.96666 13.2834 2.21429 13.2834 2.56925C13.2834 3.47728 13.2834 4.38532 13.2834 5.29747M16.6431 5.24795C16.6431 6.17662 16.6431 7.1094 16.6431 8.03807C16.6431 8.36001 16.8701 8.51686 17.1301 8.59528C17.3695 8.66544 17.6213 8.43844 17.6997 8.14952C17.741 8.00093 17.7575 7.85647 17.7575 7.70375C17.7575 6.06517 17.7575 4.42659 17.7575 2.78388C17.7575 2.65593 17.7493 2.53211 17.708 2.40828C17.6089 2.11936 17.4108 1.96252 17.1095 1.97903C16.8247 1.99554 16.6431 2.23493 16.6431 2.561C16.6431 3.45665 16.6431 4.3523 16.6431 5.24795ZM20.0028 8.12888C19.9285 8.17428 19.9244 8.21969 20.0028 8.26922C20.2092 8.4467 20.3867 8.70672 20.7127 8.57051C20.9852 8.45907 21.1214 8.24445 21.1214 7.93902C21.1214 6.16836 21.1214 4.3977 21.1214 2.62704C21.1214 2.32161 20.9645 2.11524 20.6962 2.01206C20.4279 1.90474 20.2216 2.0203 20.073 2.25144C19.9987 2.3051 19.8749 2.34225 20.007 2.46194C20.007 4.34817 20.007 6.23852 20.007 8.12888M22.3059 9.9986C21.5135 10.0068 20.721 10.011 19.9285 10.0192C19.8584 10.0192 19.7882 10.0192 19.718 10.0151C19.7015 9.9986 19.685 9.99035 19.6603 9.99035C19.5282 9.91192 19.3878 9.94907 19.2475 9.94907C14.5299 9.94907 9.80811 9.94907 5.08635 9.94907C4.94602 9.94907 4.80981 9.96146 4.66948 9.96971C4.62821 9.98209 4.58693 9.9986 4.54153 10.0151C3.48491 10.0151 2.43242 10.0027 1.3758 10.0151C1.0745 10.0151 0.847493 9.92844 0.686523 9.67254V0.930675C0.872257 0.65001 1.15292 0.596342 1.4666 0.596342C3.34045 0.60047 5.21843 0.596342 7.09227 0.596342C12.0906 0.596342 17.0889 0.596342 22.0872 0.596342C22.1573 0.596342 22.2523 0.538561 22.3059 0.637619C22.3059 3.75795 22.3059 6.8824 22.3059 10.0027" fill="#D92E3D"/>
<path d="M0.69043 11.9756C1.11968 11.7032 1.60259 11.7692 2.07311 11.7692C2.8986 11.7692 3.72821 11.7692 4.55369 11.7692C4.69815 11.8807 4.86738 11.8312 5.02834 11.8394C5.01183 11.8931 4.96643 11.8931 4.92516 11.9096C4.0584 12.2109 3.60439 12.8424 3.48056 13.7298C2.89034 13.7298 2.30425 13.7133 1.71403 13.7298C1.35082 13.7422 1.00824 13.7091 0.694558 13.5151V11.9756H0.69043Z" fill="#EBEBEB"/>
<path d="M34.3378 13.7091C34.0365 13.7091 33.7394 13.7173 33.4381 13.7215C33.4216 12.9042 33.013 12.314 32.2907 12.0086C31.4569 11.6578 30.6397 11.7444 29.9545 12.4131C29.5707 12.7887 29.4015 13.2716 29.3148 13.7875C29.2116 13.6678 29.0754 13.7256 28.9557 13.7215C28.2582 13.7132 27.5606 13.7173 26.8631 13.7132C26.8507 13.0611 26.8425 12.4089 26.8301 11.7568C26.8301 10.9891 26.8301 10.2173 26.8342 9.44545C26.8383 8.05038 26.8425 6.65532 26.8466 5.26026C26.8425 5.23137 26.8383 5.20247 26.8342 5.1777C26.8342 4.63289 26.8507 4.08807 26.8342 3.54325C26.826 3.25021 26.9498 3.15527 27.2222 3.15527C28.6833 3.16353 30.1444 3.16353 31.6096 3.16766C31.9151 3.61754 32.3319 3.98902 32.5878 4.47605C32.0884 4.48018 31.5849 4.48018 31.0854 4.48843C30.7016 4.49669 30.553 4.64114 30.5489 5.01261C30.5448 5.40884 30.5448 5.80508 30.5489 6.20131C30.553 6.56452 30.6933 6.72137 31.0483 6.72137C32.1421 6.72137 33.2358 6.71723 34.3337 6.7131V6.73787C34.3337 9.0616 34.3337 11.3853 34.3337 13.7091" fill="#61A3FA"/>
<path d="M20.4235 13.7958C19.9117 13.6431 19.3876 13.7628 18.8716 13.7257H15.1033C14.5915 13.7257 14.0838 13.7257 13.572 13.7257C13.5349 13.2221 13.3492 12.7887 12.9942 12.4131C12.7342 12.1366 12.3875 12.0252 12.082 11.8353C12.2595 11.7734 12.4452 11.7693 12.631 11.7693C14.9919 11.7693 17.3527 11.7693 19.7136 11.7651C19.7838 11.7651 19.854 11.7651 19.9241 11.7651C20.5267 11.7651 21.1293 11.7651 21.7319 11.7651C21.8516 11.7651 21.992 11.7197 22.091 11.8353C21.2119 12.1449 20.6588 12.7227 20.5556 13.6761C20.5474 13.7669 20.4978 13.7917 20.4194 13.7917" fill="#EBEBEB"/>
<path d="M22.0953 13.87C22.0953 14.2291 22.3264 14.5015 22.6112 14.485C22.8795 14.4685 23.1519 14.1548 23.1519 13.8618C23.1519 13.5316 22.9332 13.3046 22.6277 13.3046C22.2687 13.3046 22.0953 13.4862 22.0953 13.87ZM20.4237 13.7957C20.5021 13.7957 20.5475 13.7751 20.5599 13.6802C20.6631 12.7267 21.2203 12.1489 22.0953 11.8394C22.4214 11.8394 22.7474 11.8435 23.0694 11.8476C24.0063 12.1324 24.5635 12.7474 24.6915 13.7256C24.6956 14.5676 24.3613 15.1949 23.6307 15.6655C22.8878 16.1484 21.794 16.0122 21.2203 15.4054C20.8736 15.0422 20.5847 14.6625 20.5434 14.1383C20.5351 14.0186 20.3989 13.9319 20.4154 13.7916" fill="#595959"/>
<path d="M22.3059 9.99839C22.3059 6.87807 22.3059 3.75363 22.3059 0.633301C22.537 0.633301 22.7723 0.641551 23.0034 0.641551C23.3955 0.641551 23.5441 0.765369 23.606 1.15335C23.6184 1.24415 23.6102 1.33908 23.6102 1.43401C23.6102 3.99713 23.6102 6.55614 23.6102 9.11926C23.6102 9.2596 23.5936 9.39167 23.5648 9.53201C23.4946 9.8622 23.2965 10.0232 22.9621 10.019C22.7434 10.019 22.5205 10.0108 22.3018 10.0025" fill="#C22430"/>
<path d="M34.3374 13.7095C34.3374 11.3858 34.3374 9.06202 34.3374 6.73828C34.8905 6.73828 35.4394 6.73828 35.9925 6.73828C35.9925 8.07556 35.9925 9.41286 35.9925 10.746C35.7036 10.746 35.4105 10.746 35.1216 10.7584C34.7006 10.7708 34.552 10.9028 34.552 11.2372C34.552 11.6086 34.7336 11.7985 35.1299 11.815C35.4188 11.8274 35.7118 11.8274 36.0008 11.8315C36.0008 12.2938 36.0008 12.7561 36.0008 13.2183C36.0008 13.6187 35.9058 13.7136 35.5178 13.7136C35.1257 13.7136 34.7336 13.7054 34.3415 13.7012" fill="#548FFA"/>
<path d="M26.8455 5.26456C26.8414 6.65963 26.8372 8.05469 26.8331 9.44975C26.5071 9.43737 26.181 9.44975 25.859 9.40848C25.4711 9.35895 25.3184 9.16084 25.3184 8.77286C25.3184 7.81943 25.3184 6.86599 25.3184 5.91255C25.3184 5.45441 25.5165 5.26456 25.9829 5.26043C26.2264 5.26043 26.4699 5.25217 26.7134 5.24805C26.7588 5.25217 26.8042 5.26043 26.8455 5.26456Z" fill="#ABABAB"/>
<path d="M35.9921 6.74219C35.439 6.74219 34.89 6.74219 34.337 6.74219V6.71743C34.2627 6.31707 33.916 6.09832 33.7055 5.78876C33.4042 5.33887 32.979 4.98391 32.7231 4.50513C32.9625 4.501 33.2019 4.50927 33.4413 4.48863C33.7179 4.46386 34.0068 4.57117 34.2751 4.41846C34.8075 5.06646 35.3399 5.71447 35.8641 6.37073C35.9467 6.46979 36.0622 6.58122 35.9921 6.74219Z" fill="#91D9FA"/>
<path d="M26.8292 11.7612C26.8416 12.4134 26.8499 13.0655 26.8622 13.7176C26.3463 13.7176 25.8304 13.7176 25.3145 13.7218C25.3145 13.0737 25.3145 12.4216 25.3145 11.7736C25.818 11.7736 26.3215 11.7654 26.8292 11.7612Z" fill="#DEDEDE"/>
<path d="M34.2755 4.41861C34.0072 4.57133 33.7224 4.46402 33.4417 4.48878C33.2023 4.50942 32.9629 4.50116 32.7236 4.50528C32.6781 4.49703 32.6328 4.48878 32.5915 4.48052C32.3356 3.99349 31.9187 3.62203 31.6133 3.17214C31.8692 3.16801 32.1251 3.18864 32.3768 3.15562C32.9918 3.07308 33.4706 3.21753 33.7802 3.80775C33.8999 4.03476 34.1104 4.2205 34.2796 4.42274" fill="#548FFA"/>
<path d="M25.3144 11.7694C25.3144 12.4174 25.3144 13.0695 25.3144 13.7175C25.1081 13.7175 24.9017 13.7175 24.6953 13.7217C24.5632 12.7393 24.0102 12.1243 23.0732 11.8437C23.1475 11.7364 23.259 11.7653 23.3622 11.7653C24.0143 11.7653 24.6664 11.7653 25.3186 11.7653" fill="#EBEBEB"/>
<path d="M36.0005 11.8394C35.7116 11.8353 35.4185 11.8394 35.1296 11.8229C34.7334 11.8023 34.5518 11.6124 34.5518 11.2451C34.5518 10.9066 34.7045 10.7787 35.1213 10.7663C35.4103 10.758 35.7033 10.758 35.9922 10.7539C36.3472 10.8323 36.5123 11.0593 36.5082 11.4184C36.4215 11.6578 36.2275 11.7734 36.0005 11.8435" fill="#FAF063"/>
<path d="M26.8461 5.26484C26.8005 5.26069 26.7549 5.25654 26.7134 5.24825C26.7549 5.22336 26.7922 5.20262 26.8337 5.17773C26.8378 5.20677 26.8419 5.2358 26.8502 5.26069" fill="#B0E3FA"/>
<path d="M31.378 14.4232C31.733 14.4273 31.9311 14.2457 31.9517 13.8866C31.9723 13.5523 31.7536 13.3129 31.4193 13.3047C31.0932 13.2964 30.8414 13.5399 30.8414 13.866C30.8414 14.1467 31.1056 14.4191 31.378 14.4232ZM29.3143 13.7876C29.401 13.2716 29.5702 12.7887 29.954 12.4131C30.6392 11.7445 31.4564 11.6578 32.2902 12.0087C33.0125 12.3141 33.4211 12.9043 33.4376 13.7215C33.5284 14.8153 32.9299 15.4509 32.0054 15.8678C31.4275 16.1278 30.3007 15.8513 29.9128 15.3354C29.5702 14.8772 29.2771 14.3943 29.3102 13.7834" fill="#595959"/>
<path d="M6.07635 13.8702C6.08047 13.5029 5.91538 13.313 5.58106 13.3048C5.25912 13.2965 5.02798 13.5276 5.02385 13.862C5.02385 14.1633 5.30452 14.4976 5.55629 14.4893C5.83696 14.4811 6.06809 14.2045 6.07222 13.8702M3.47607 13.7258C3.5999 12.8384 4.05391 12.2027 4.92067 11.9056C4.96607 11.8891 5.01147 11.8891 5.02385 11.8354C5.30865 11.8354 5.58931 11.8313 5.8741 11.8271C5.98967 11.8395 6.08873 11.9427 6.22081 11.8973C7.05042 12.2316 7.5292 12.8342 7.62825 13.7258C7.62825 14.4852 7.38886 15.1208 6.7326 15.5583C6.06396 16.0041 5.35405 16.1197 4.62762 15.7275C3.89707 15.3313 3.49671 14.7122 3.48846 13.8661C3.48846 13.8207 3.4802 13.7753 3.47607 13.7258Z" fill="#595959"/>
<path d="M12.0249 13.8744C12.0249 13.4575 11.8928 13.3089 11.5172 13.3048C11.2076 13.3006 10.9682 13.5483 10.9724 13.8744C10.9765 14.188 11.2035 14.4233 11.4965 14.4233C11.8804 14.4233 12.0207 14.2788 12.0207 13.8744M12.0868 11.8354C12.3922 12.0253 12.7389 12.1367 12.9989 12.4132C13.3539 12.7888 13.5355 13.2222 13.5768 13.7258C13.5107 15.0218 13.0526 15.5955 11.8309 15.9215C11.1375 16.1073 10.151 15.6285 9.76716 14.9351C9.55666 14.5554 9.43284 14.1591 9.42871 13.7258C9.4576 13.6391 9.49062 13.5524 9.51126 13.4657C9.69286 12.6898 10.1593 12.1656 10.9063 11.8932C11.0219 11.8684 11.1375 11.8478 11.253 11.823C11.5337 11.9014 11.8144 11.6827 12.095 11.8354" fill="#595959"/>
<path d="M15.1035 13.7214H18.8719C18.9049 14.0516 18.8719 14.3859 18.9173 14.7202C18.9461 14.9266 18.7274 15.1701 18.4715 15.1784C17.4974 15.199 16.5234 15.199 15.5493 15.1784C15.2439 15.1743 15.1159 14.9349 15.1035 14.6583C15.087 14.3447 15.1035 14.031 15.1035 13.7173" fill="#ABABAB"/>
<path d="M10.8973 11.8932C10.1502 12.1656 9.68383 12.6856 9.50222 13.4657C9.48158 13.5524 9.44856 13.6391 9.41967 13.7258H7.62425C7.52519 12.8342 7.04641 12.2316 6.2168 11.8973C6.24156 11.8602 6.2622 11.8189 6.28696 11.7817C7.77696 11.7817 9.26696 11.7817 10.757 11.7817C10.8024 11.8189 10.8478 11.8602 10.8932 11.8973" fill="#EBEBEB"/>
<path d="M10.7613 11.7775C9.2713 11.7775 7.7813 11.7775 6.29131 11.7775C6.15097 11.7775 6.00239 11.7156 5.87444 11.8229C5.59377 11.8229 5.30898 11.8311 5.02832 11.8311C4.86735 11.8188 4.69812 11.8724 4.55366 11.761C4.55366 11.1749 4.54541 10.5929 4.54541 10.0068C4.58668 9.99032 4.62796 9.97794 4.67336 9.96143C4.78893 10.044 4.921 10.0068 5.04895 10.0068C9.79135 10.0068 14.5379 10.0068 19.2803 10.0068C19.4082 10.0068 19.5362 9.99033 19.6641 9.98207C19.6848 9.98207 19.7054 9.99032 19.7219 10.0068C19.7219 10.5888 19.7219 11.1749 19.7219 11.7569C17.361 11.7569 15.0002 11.761 12.6393 11.7651C12.4535 11.7651 12.2678 11.7651 12.0903 11.8311C11.8138 11.6784 11.529 11.9013 11.2483 11.8188C11.0956 11.7032 10.9264 11.7734 10.7654 11.7734" fill="#ABABAB"/>
<path d="M20.0648 2.25146C20.2134 2.02033 20.4198 1.90476 20.688 2.01208C20.9563 2.11939 21.1132 2.32163 21.1132 2.62706C21.1132 4.39772 21.1132 6.16838 21.1132 7.93904C21.1132 8.24447 20.977 8.45909 20.7045 8.57053C20.3785 8.70261 20.1969 8.44672 19.9946 8.26924C20.0648 8.22384 20.0648 8.17843 19.9946 8.1289C19.9946 6.23854 19.9946 4.35232 19.9946 2.46196C20.073 2.40831 20.0565 2.32988 20.0607 2.25146" fill="#A61F29"/>
<path d="M16.6426 5.24813C16.6426 4.35248 16.6426 3.45683 16.6426 2.56118C16.6426 2.23924 16.8283 1.99572 17.109 1.97921C17.4103 1.9627 17.6084 2.11955 17.7075 2.40847C17.7487 2.53229 17.757 2.65611 17.757 2.78406C17.757 4.42265 17.757 6.06535 17.757 7.70393C17.757 7.85665 17.7405 8.00111 17.6992 8.1497C17.6208 8.43862 17.369 8.66562 17.1296 8.59546C16.8696 8.51704 16.6426 8.36019 16.6426 8.03825C16.6426 7.10958 16.6426 6.1768 16.6426 5.24813Z" fill="#A61F29"/>
<path d="M13.2832 5.29325C13.2832 4.38521 13.2832 3.47719 13.2832 2.56503C13.2832 2.21007 13.5102 1.96656 13.8156 1.97481C14.1128 1.98307 14.3316 2.21833 14.3316 2.55265C14.3316 4.38109 14.3316 6.21366 14.3316 8.04211C14.3316 8.35579 14.1128 8.60344 13.8445 8.61169C13.5226 8.61582 13.2832 8.38468 13.2832 8.05449C13.2832 7.13407 13.2832 6.21366 13.2832 5.29325Z" fill="#A61F29"/>
<path d="M4.25686 5.29337C4.25686 6.2014 4.25686 7.10943 4.25686 8.01747C4.25686 8.3683 4.02572 8.60356 3.67902 8.61182C3.42725 8.61594 3.2085 8.35592 3.2085 8.0216C3.2085 6.20553 3.2085 4.38947 3.2085 2.57754C3.2085 2.19781 3.42725 1.98318 3.78633 1.97906C4.06287 1.97493 4.25686 2.21432 4.25686 2.57341C4.25686 3.48144 4.25686 4.38947 4.25686 5.2975" fill="#A61F29"/>
<path d="M6.56738 5.26847C6.56738 4.3852 6.56738 3.49781 6.56738 2.61454C6.56738 2.37515 6.61691 2.16877 6.83979 2.05321C7.28555 1.8262 7.61162 2.05321 7.61575 2.59803C7.61987 3.76196 7.61575 4.9259 7.61575 6.08983C7.61575 6.7172 7.61575 7.34868 7.61575 7.97605C7.61575 8.2856 7.31857 8.6158 7.05029 8.60754C6.77788 8.59929 6.57151 8.34339 6.57151 7.98843C6.57151 7.0804 6.57151 6.17238 6.57151 5.26435" fill="#A61F29"/>
<path d="M10.9761 5.29309C10.9761 6.18049 10.9761 7.06375 10.9761 7.95115C10.9761 8.27309 10.6913 8.61153 10.4354 8.60741C10.1258 8.60328 9.92773 8.36389 9.92773 7.98004C9.92773 6.18462 9.92773 4.38919 9.92773 2.59789C9.92773 2.24706 10.163 1.98291 10.4602 1.98291C10.7697 1.98291 10.9761 2.2223 10.9761 2.60615C10.9761 3.5018 10.9761 4.40157 10.9761 5.29722" fill="#A61F29"/>
<path d="M19.6558 9.99048C19.5279 9.99874 19.3999 10.0152 19.272 10.0152C14.5296 10.0152 9.78304 10.0152 5.04064 10.0152C4.91681 10.0152 4.78473 10.0483 4.66504 9.96985C4.80537 9.9616 4.94158 9.94921 5.08191 9.94921C9.79955 9.94921 14.5213 9.94921 19.2389 9.94921C19.3751 9.94921 19.5196 9.91619 19.6517 9.99048" fill="#E5737D"/>
<path d="M20.0645 2.25146C20.0645 2.32989 20.0769 2.40831 19.9985 2.46197C19.8623 2.34227 19.9902 2.30512 20.0645 2.25146Z" fill="#C22430"/>
<path d="M20.0028 8.12891C20.0733 8.17868 20.0691 8.22431 20.0028 8.26993C19.9281 8.22016 19.9281 8.17453 20.0028 8.12891Z" fill="#C22430"/>
<path d="M32.5918 4.47607C32.6372 4.48433 32.6826 4.49258 32.7239 4.50084C32.9798 4.98375 33.4049 5.3387 33.7062 5.78446C33.9167 6.09401 34.2634 6.31277 34.3377 6.71313C33.244 6.71725 32.1502 6.72552 31.0523 6.72139C30.6974 6.72139 30.557 6.56042 30.5529 6.20133C30.5488 5.8051 30.5488 5.40887 30.5529 5.01263C30.557 4.64117 30.7056 4.49671 31.0895 4.48846C31.5889 4.4802 32.0924 4.4802 32.5918 4.47607Z" fill="#B0E3FA"/>
<path d="M22.0952 13.8702C22.0952 13.4864 22.2644 13.3006 22.6277 13.3048C22.9331 13.3048 23.1518 13.5359 23.1518 13.862C23.1518 14.1509 22.8794 14.4687 22.6111 14.4852C22.3264 14.5017 22.0952 14.2293 22.0952 13.8702Z" fill="#EBEBEB"/>
<path d="M31.3774 14.4229C31.105 14.4188 30.8408 14.1464 30.8408 13.8657C30.8408 13.5438 31.0926 13.2961 31.4187 13.3044C31.753 13.3127 31.9676 13.552 31.9511 13.8864C31.9305 14.2455 31.7365 14.4271 31.3815 14.4229" fill="#EBEBEB"/>
<path d="M6.07668 13.8701C6.07256 14.2045 5.84142 14.4851 5.56076 14.4934C5.30898 14.5016 5.02832 14.1632 5.02832 13.866C5.02832 13.5317 5.25945 13.3006 5.58552 13.3088C5.91984 13.3171 6.08494 13.511 6.08081 13.8743" fill="#EBEBEB"/>
<path d="M5.875 11.8231C6.00295 11.7116 6.15154 11.7736 6.29187 11.7777C6.26711 11.819 6.24647 11.8561 6.2217 11.8933C6.09375 11.9428 5.9947 11.8355 5.875 11.8231Z" fill="#D1D1D1"/>
<path d="M12.0247 13.8743C12.0247 14.2788 11.8885 14.4233 11.5005 14.4233C11.2034 14.4233 10.9805 14.188 10.9722 13.8743C10.9681 13.5483 11.2075 13.3006 11.517 13.3047C11.8926 13.3089 12.0206 13.4575 12.0247 13.8743Z" fill="#EBEBEB"/>
<path d="M10.7607 11.7777C10.9217 11.7777 11.0909 11.7117 11.2436 11.8231C11.1281 11.8479 11.0125 11.8685 10.8969 11.8933C10.8515 11.8562 10.8061 11.8149 10.7607 11.7777Z" fill="#D1D1D1"/>
<path d="M42.0386 6.88666V0.472656H46.5787V1.67374H43.4047V3.01928H46.5127V4.22036H43.4047V6.88253H42.0386V6.88666Z" fill="#BCC1D1"/>
<path d="M47.3833 1.01331C47.3833 0.608827 47.7094 0.291016 48.1056 0.291016C48.5018 0.291016 48.8361 0.608827 48.8361 1.01331C48.8361 1.4178 48.5101 1.74386 48.1056 1.74386C47.7011 1.74386 47.3833 1.4178 47.3833 1.01331ZM47.4989 6.88662V2.24328H48.7206V6.88662H47.4989Z" fill="#BCC1D1"/>
<path d="M49.9341 6.88684V2.2435H51.1558V2.86674C51.4942 2.46225 52.0597 2.12793 52.6375 2.12793V3.32076C52.5509 3.30012 52.4435 3.29186 52.2991 3.29186C51.8946 3.29186 51.358 3.523 51.1558 3.82017V6.88684H49.9341Z" fill="#BCC1D1"/>
<path d="M52.9932 6.28401L53.5215 5.40074C53.8682 5.72681 54.5492 6.04462 55.127 6.04462C55.6553 6.04462 55.9071 5.84239 55.9071 5.55347C55.9071 4.79402 53.1583 5.41726 53.1583 3.59294C53.1583 2.81286 53.831 2.13184 55.061 2.13184C55.8411 2.13184 56.4643 2.40012 56.9266 2.76746L56.4354 3.63421C56.1548 3.34529 55.6265 3.09765 55.061 3.09765C54.6194 3.09765 54.3304 3.29164 54.3304 3.54754C54.3304 4.22856 57.0917 3.65484 57.0917 5.52869C57.0917 6.38307 56.3611 7.01044 55.0734 7.01044C54.2644 7.01044 53.4885 6.74216 52.9973 6.28815L52.9932 6.28401Z" fill="#BCC1D1"/>
<path d="M58.234 5.72255V3.30802H57.4663V2.23901H58.234V0.967773H59.4557V2.23901H60.3968V3.30802H59.4557V5.39649C59.4557 5.69367 59.6084 5.91654 59.8808 5.91654C60.0625 5.91654 60.2358 5.85051 60.306 5.77209L60.566 6.70488C60.3844 6.86997 60.0583 7.00205 59.5465 7.00205C58.6921 7.00205 58.2381 6.56042 58.2381 5.72255H58.234Z" fill="#BCC1D1"/>
<path d="M69.3125 6.88666V2.25983L67.5047 6.88666H66.9103L65.1025 2.25983V6.88666H63.7363V0.472656H65.6514L67.2075 4.4845L68.7635 0.472656H70.6869V6.88666H69.3125Z" fill="#BCC1D1"/>
<path d="M71.8135 1.01331C71.8135 0.608827 72.1395 0.291016 72.5358 0.291016C72.932 0.291016 73.2663 0.608827 73.2663 1.01331C73.2663 1.4178 72.9403 1.74386 72.5358 1.74386C72.1313 1.74386 71.8135 1.4178 71.8135 1.01331ZM71.929 6.88662V2.24328H73.1508V6.88662H71.929Z" fill="#BCC1D1"/>
<path d="M74.3643 6.88666V0.472656H75.586V6.88666H74.3643Z" fill="#BCC1D1"/>
<path d="M76.498 4.56288C76.498 3.21734 77.4969 2.13184 78.9043 2.13184C80.3118 2.13184 81.2322 3.17194 81.2322 4.67844V4.96737H77.7817C77.8684 5.53695 78.3306 6.00747 79.119 6.00747C79.5152 6.00747 80.0518 5.84238 80.3489 5.55759L80.8979 6.36656C80.4356 6.79168 79.7051 7.01044 78.9828 7.01044C77.5712 7.01044 76.5022 6.05701 76.5022 4.56701L76.498 4.56288ZM78.9043 3.12654C78.1449 3.12654 77.8188 3.65485 77.7693 4.11712H80.06C80.0229 3.67549 79.7133 3.12654 78.9043 3.12654Z" fill="#BCC1D1"/>
<path d="M41.9805 16.1362V9.72217H43.3549V14.9351H46.0666V16.1362H41.9805Z" fill="#BCC1D1"/>
<path d="M49.6823 16.1364V15.6452C49.3645 16.029 48.8156 16.2519 48.213 16.2519C47.4742 16.2519 46.6074 15.7525 46.6074 14.7124C46.6074 13.6145 47.4742 13.2141 48.213 13.2141C48.8362 13.2141 49.3769 13.4164 49.6823 13.7796V13.1935C49.6823 12.723 49.2779 12.4134 48.6629 12.4134C48.1717 12.4134 47.7094 12.6074 47.3256 12.9624L46.8427 12.108C47.4081 11.5962 48.1428 11.3774 48.8734 11.3774C49.9424 11.3774 50.9123 11.7984 50.9123 13.1357V16.1364H49.6823ZM49.6823 15.0219V14.4441C49.4801 14.1758 49.0963 14.0314 48.7 14.0314C48.2171 14.0314 47.825 14.2914 47.825 14.733C47.825 15.1747 48.2212 15.4264 48.7 15.4264C49.0963 15.4264 49.4801 15.2902 49.6823 15.0219Z" fill="#BCC1D1"/>
<path d="M51.7129 15.5296L52.2412 14.6464C52.5879 14.9724 53.2689 15.2902 53.8468 15.2902C54.3751 15.2902 54.6268 15.088 54.6268 14.7991C54.6268 14.0396 51.878 14.6629 51.878 12.8385C51.878 12.0585 52.5508 11.3774 53.7807 11.3774C54.5608 11.3774 55.184 11.6457 55.6463 12.0131L55.1552 12.8798C54.8745 12.5909 54.3462 12.3433 53.7807 12.3433C53.3391 12.3433 53.0502 12.5372 53.0502 12.7931C53.0502 13.4742 55.8114 12.9005 55.8114 14.7743C55.8114 15.6287 55.0809 16.256 53.7931 16.256C52.9841 16.256 52.2082 15.9878 51.717 15.5338L51.7129 15.5296Z" fill="#BCC1D1"/>
<path d="M56.9547 14.9721V12.5575H56.187V11.4885H56.9547V10.2173H58.1764V11.4885H59.1175V12.5575H58.1764V14.646C58.1764 14.9432 58.3291 15.1661 58.6016 15.1661C58.7832 15.1661 58.9565 15.1 59.0226 15.0216L59.2826 15.9544C59.101 16.1195 58.7749 16.2516 58.2631 16.2516C57.4087 16.2516 56.9547 15.8099 56.9547 14.9721Z" fill="#BCC1D1"/>
<path d="M68.0332 16.1362V11.5093L66.2254 16.1362H65.631L63.8232 11.5093V16.1362H62.457V9.72217H64.3722L65.9282 13.734L67.4842 9.72217H69.4076V16.1362H68.0332Z" fill="#BCC1D1"/>
<path d="M70.5342 10.2628C70.5342 9.85834 70.8602 9.54053 71.2565 9.54053C71.6527 9.54053 71.987 9.85834 71.987 10.2628C71.987 10.6673 71.661 10.9934 71.2565 10.9934C70.852 10.9934 70.5342 10.6673 70.5342 10.2628ZM70.6497 16.1361V11.4928H71.8715V16.1361H70.6497Z" fill="#BCC1D1"/>
<path d="M73.085 16.1362V9.72217H74.3067V16.1362H73.085Z" fill="#BCC1D1"/>
<path d="M75.2188 13.8085C75.2188 12.463 76.2176 11.3774 77.625 11.3774C79.0325 11.3774 79.9529 12.4176 79.9529 13.9241V14.213H76.5024C76.589 14.7826 77.0513 15.2531 77.8396 15.2531C78.2359 15.2531 78.7724 15.088 79.0696 14.8032L79.6186 15.6122C79.1563 16.0373 78.4257 16.256 77.7034 16.256C76.2919 16.256 75.2229 15.3026 75.2229 13.8126L75.2188 13.8085ZM77.625 12.3763C76.8656 12.3763 76.5395 12.9046 76.49 13.3669H78.7807C78.7436 12.9252 78.434 12.3763 77.625 12.3763Z" fill="#BCC1D1"/>
</svg>
