<svg width="72" height="85" viewBox="0 0 72 85" fill="none" xmlns="http://www.w3.org/2000/svg">
    <path d="M59.1935 10.8823H47.021V23.0548H59.1935V10.8823Z" fill="#18469C" />
    <path d="M59.1935 24.4314H47.021V36.6039H59.1935V24.4314Z" fill="#f4f4f4" />
    <path
        d="M0.251465 0.608154V52.9048H5.59028V5.94697H65.8655V64.6383H13.5688V69.9772H71.2043V0.608154H0.251465Z"
        fill="#EF4933" />
    <path
        d="M6.79448 65C7.63089 65 8.30714 64.3238 8.30714 63.4874V58.8545C8.30714 58.018 7.63089 57.3418 6.79448 57.3418H1.76413C0.927717 57.3418 0.251465 58.018 0.251465 58.8545V68.4584C0.251465 69.2948 0.927717 69.9711 1.76413 69.9711H6.79448C7.62496 69.9711 8.29528 69.3007 8.30714 68.4762H2.14971V64.9941H6.80041L6.79448 65ZM6.40889 63.4162H2.14378V59.0739H6.40889V63.4162Z"
        fill="#f4f4f4" />
    <path
        d="M7.16219 77.1076H2.76064C2.11405 77.1076 1.78779 76.7695 1.78779 76.0991V75.3992C1.78779 74.7585 2.11998 74.4441 2.7903 74.4441H9.3867V72.9077H2.56488C1.02849 72.9077 0.263253 73.6789 0.263253 75.2093V76.2771C0.257321 77.8313 1.02256 78.6084 2.55895 78.6084H6.88339C7.5893 78.6084 7.93928 78.9465 7.93928 79.6168V81.0642C7.93928 81.7583 7.59523 82.0964 6.88339 82.1023H0.257324V83.6506H7.16813C8.70452 83.6506 9.47568 82.8735 9.48161 81.3371V79.2372C9.48161 77.8135 8.71045 77.1017 7.16813 77.1017L7.16219 77.1076Z"
        fill="#f4f4f4" />
    <path
        d="M34.953 81.1297C34.953 81.7882 34.609 82.1144 33.9209 82.1144H27.8346C27.1524 82.1144 26.8084 81.7644 26.8084 81.0585V72.8901H25.272V81.3433C25.272 82.8797 26.0372 83.6449 27.5736 83.6449H34.1759C35.7123 83.6449 36.5013 82.8797 36.5547 81.3433V72.902H34.9471V81.1238L34.953 81.1297Z"
        fill="#f4f4f4" />
    <path d="M42.3275 79.8955L41.6216 81.3548H46.2723L45.5486 79.8955H42.3275Z" fill="#EF4933" />
    <path
        d="M43.3882 72.9375L38.1265 83.6448H39.8823L43.9517 75.3281L48.0507 83.6507H49.7591L44.5508 72.9375H43.3882Z"
        fill="#f4f4f4" />
    <path
        d="M58.1885 78.626C59.719 78.626 60.4843 77.843 60.4843 76.2947V75.2151C60.4843 73.6906 59.7131 72.9194 58.1885 72.9016H51.2837V83.6386H52.8141V74.438H57.9691C58.6275 74.438 58.9538 74.7643 58.9538 75.4168V76.1464C58.9538 76.8167 58.5979 77.1311 57.886 77.1015H53.6209V78.6141L58.6157 83.6386H60.68L55.8632 78.6201H58.1885V78.626Z"
        fill="#f4f4f4" />
    <path d="M71.0855 77.0898H65.1772V78.6025H71.0855V77.0898Z" fill="#EF4933" />
    <path d="M71.2048 72.9077H62.811V83.6506H71.2048V82.1142H64.3296V74.4382H71.2048V72.9077Z"
        fill="#f4f4f4" />
    <path
        d="M20.6764 72.9076H14.0741C12.5377 72.9076 11.7725 73.6728 11.7725 75.2092V81.3489C11.7725 82.8853 12.5377 83.6505 14.0741 83.6505H19.0392L17.6807 82.1141H14.347C13.6529 82.1141 13.3089 81.77 13.3089 81.0819V75.4643C13.3089 74.7762 13.6588 74.4321 14.3529 74.4262H20.4154C21.1035 74.4262 21.4476 74.7703 21.4476 75.4524V81.165C21.4476 81.7167 21.2281 82.0251 20.7951 82.0904L21.9518 83.3954C22.6399 83.0514 22.9899 82.3692 22.9899 81.337V75.1796C22.9899 73.661 22.2187 72.8958 20.6764 72.8958V72.9076Z"
        fill="#f4f4f4" />
    <path d="M22.2967 84.392H20.262L17.2485 80.9871H19.2773L22.2967 84.392Z" fill="#EF4933" />
</svg>
