<svg width="274" height="52" viewBox="0 0 274 52" fill="none" xmlns="http://www.w3.org/2000/svg">
<g clip-path="url(#clip0_479_1662)">
<path d="M82.4921 22.2554H69.3734C67.437 22.2554 66.4687 21.2463 66.4687 19.2417V17.1552C66.4687 15.2461 67.4642 14.3051 69.4552 14.3051H89.1196V9.72314H68.787C64.205 9.73678 61.9277 12.0278 61.9277 16.5825L61.9004 19.7599C61.9004 24.3964 64.1914 26.7147 68.7597 26.7147H81.6466C83.7603 26.7147 84.7967 27.7102 84.783 29.7148V34.0377C84.7967 36.1105 83.7466 37.1196 81.6466 37.1332H61.9004V41.7561H82.4921C87.074 41.7425 89.365 39.4515 89.3787 34.8695V28.6102C89.3787 24.3691 87.0877 22.2418 82.4921 22.2418V22.2554Z" fill="#3A3A3A"/>
<path d="M165.323 34.2429C165.323 36.2066 164.301 37.1885 162.255 37.1885H144.118C142.086 37.1885 141.063 36.1384 141.063 34.052V9.71021H136.481V34.9111C136.481 39.4931 138.772 41.7705 143.341 41.7705H163.019C167.601 41.7705 169.96 39.4795 170.096 34.9111V9.75112H165.296V34.2429H165.323Z" fill="#3A3A3A"/>
<path d="M187.305 30.5605L185.191 34.9243H199.06L196.905 30.5605H187.305Z" fill="#EF4933"/>
<path d="M190.456 9.83301L174.787 41.7433H180.024L192.133 16.9651L204.365 41.7705H209.466L193.92 9.83301H190.456Z" fill="#3A3A3A"/>
<path d="M234.572 26.7965C239.127 26.7829 241.418 24.4646 241.418 19.8417V16.6098C241.404 12.055 239.127 9.76406 234.572 9.72314H213.994V41.7152H218.549V14.3051H233.918C235.881 14.3051 236.863 15.2733 236.863 17.2234V19.4053C236.863 21.3963 235.799 22.3509 233.686 22.2554H220.976V26.7692L235.854 41.7425H242.004L227.645 26.7965H234.572Z" fill="#3A3A3A"/>
<path d="M273.014 22.2148H255.409V26.7286H273.014V22.2148Z" fill="#EF4933"/>
<path d="M273.368 9.75098H248.345V41.7703H273.368V37.1883H252.886V14.3057H273.368V9.75098Z" fill="#3A3A3A"/>
<path d="M122.763 9.75098H103.085C98.5029 9.75098 96.2256 12.042 96.2256 16.624V34.9246C96.2256 39.5066 98.5166 41.784 103.085 41.784H117.881L113.831 37.202H103.89C101.83 37.202 100.794 36.1792 100.794 34.1337V17.4013C100.794 15.3557 101.83 14.3193 103.917 14.3057H121.986C124.031 14.3193 125.054 15.3421 125.054 17.3603V34.3792C125.054 36.0292 124.399 36.9429 123.104 37.1474L126.554 41.0339C128.613 40.0112 129.65 37.9793 129.65 34.911V16.5558C129.65 12.0283 127.359 9.75098 122.763 9.75098Z" fill="#3A3A3A"/>
<path d="M127.589 43.9659H121.535L112.548 33.8201H118.603L127.589 43.9659Z" fill="#EF4933"/>
<path d="M0.630859 0.109863V37.243H5.3083V4.78731H47.228V46.707H14.7723V51.3845H51.9055V0.109863H0.630859Z" fill="#EF4933"/>
<path d="M11.2403 40.7749H0.630859V51.3844H11.2403V40.7749Z" fill="#F9A000"/>
<path d="M33.7702 32.5377C36.2522 32.5377 38.2704 30.5194 38.2704 28.0375V14.237C38.2704 11.7551 36.2522 9.73682 33.7702 9.73682H18.7697C16.2878 9.73682 14.2695 11.7551 14.2695 14.237V37.2696C14.2695 39.7516 16.2878 41.7698 18.7697 41.7698H33.7702C36.2385 41.7698 38.2431 39.7788 38.2704 37.3106H19.9152V32.5377H33.7702ZM32.6248 27.8057H19.9016V14.8506H32.6248V27.8057Z" fill="#3A3A3A"/>
<path d="M5.9356 46.0798H0.630859V51.3846H5.9356V46.0798Z" fill="#EF4933"/>
</g>
<defs>
<clipPath id="clip0_479_1662">
<rect width="272.737" height="51.2746" fill="white" transform="translate(0.630859 0.109863)"/>
</clipPath>
</defs>
</svg>
