<svg width="39" height="28" viewBox="0 0 39 28" fill="none" xmlns="http://www.w3.org/2000/svg">
<path d="M32.1841 8.83051H32.5768V7.48982L32.1841 7.38477V8.83051Z" fill="#248AB9"/>
<path d="M33.7974 8.83035H34.1901V7.92488L33.7974 7.81982V8.83035Z" fill="#248AB9"/>
<path d="M35.4106 8.83067H35.8033V8.36042L35.4106 8.25537V8.83067Z" fill="#248AB9"/>
<path d="M37.0234 8.8305H37.4161V8.79549L37.0234 8.69043V8.8305Z" fill="#248AB9"/>
<path d="M32.1841 17.3047H32.5768V18.6454L32.1841 18.7504V17.3047Z" fill="#248AB9"/>
<path d="M33.7974 17.3047H34.1901V18.2102L33.7974 18.3152V17.3047Z" fill="#248AB9"/>
<path d="M35.4106 17.3047H35.8033V17.7724L35.4106 17.88V17.3047Z" fill="#248AB9"/>
<path d="M37.0234 17.3047V17.4448L37.4161 17.3372V17.3047H37.0234Z" fill="#248AB9"/>
<path d="M19.4695 0.881348L16.4829 1.71678L12.4434 2.84986V5.8364L16.4829 4.70332V8.17011H19.4695V3.86539V0.881348Z" fill="#248AB9"/>
<path d="M3.83908 5.26085L0.852539 6.09879V6.83917L3.83908 6.00124L12.4435 3.58749V2.84961L3.83908 5.26085Z" fill="#248AB9"/>
<path d="M26.5088 3.58749L35.1132 6.00124L38.0998 6.83917V6.09879L35.1132 5.26085L26.5088 2.84961V3.58749Z" fill="#248AB9"/>
<path d="M1.53564 8.79066V8.83068H1.92835V8.68311L1.53564 8.79066Z" fill="#248AB9"/>
<path d="M3.14844 8.83036H3.54114V8.24756L3.14844 8.35511V8.83036Z" fill="#248AB9"/>
<path d="M4.7627 8.83053H5.1554V7.8125L4.7627 7.92006V8.83053Z" fill="#248AB9"/>
<path d="M6.37598 8.83069H6.76868V7.37744L6.37598 7.4825V8.83069Z" fill="#248AB9"/>
<path d="M7.98828 8.83037H8.38098V6.94189L7.98828 7.04695V8.83037Z" fill="#248AB9"/>
<path d="M9.6001 8.83053H9.9953V6.50684L9.6001 6.61189V8.83053Z" fill="#248AB9"/>
<path d="M11.2129 8.83021H11.6081V6.07129L11.2129 6.17634V8.83021Z" fill="#248AB9"/>
<path d="M27.3438 8.83052H27.739V6.18416L27.3438 6.0791V8.83052Z" fill="#248AB9"/>
<path d="M28.957 8.83036H29.3522V6.61921L28.957 6.51416V8.83036Z" fill="#248AB9"/>
<path d="M30.5708 8.83068H30.9635V7.05476L30.5708 6.94971V8.83068Z" fill="#248AB9"/>
<path d="M35.1132 20.1338L26.5088 22.5451V25.2915L38.0998 20.6091V19.2959L35.1132 20.1338Z" fill="#248AB9"/>
<path d="M1.53564 17.3047V17.3447L1.92835 17.4523V17.3047H1.53564Z" fill="#248AB9"/>
<path d="M3.14844 17.3047H3.54114V17.8875L3.14844 17.7799V17.3047Z" fill="#248AB9"/>
<path d="M4.7627 17.3047H5.1554V18.3227L4.7627 18.2152V17.3047Z" fill="#248AB9"/>
<path d="M6.37598 17.3047H6.76868V18.7579L6.37598 18.6504V17.3047Z" fill="#248AB9"/>
<path d="M7.98828 17.3047H8.38098V19.1932L7.98828 19.0856V17.3047Z" fill="#248AB9"/>
<path d="M9.6001 17.3047H9.9953V19.6284L9.6001 19.5233V17.3047Z" fill="#248AB9"/>
<path d="M11.2129 17.3047H11.6081V20.0636L11.2129 19.9586V17.3047Z" fill="#248AB9"/>
<path d="M27.3438 17.3047H27.739V19.9511L27.3438 20.0561V17.3047Z" fill="#248AB9"/>
<path d="M28.957 17.3047H29.3522V19.5158L28.957 19.6209V17.3047Z" fill="#248AB9"/>
<path d="M30.5708 17.3047H30.9635V19.0806L30.5708 19.1857V17.3047Z" fill="#248AB9"/>
<path d="M19.4697 0.881348V3.86539V8.17011H22.4538V4.70332L26.4934 5.8364V2.84986L22.4538 1.71678L19.4697 0.881348Z" fill="#044D80"/>
<path d="M8.84421 12.2123C8.84421 11.9872 8.78668 11.8371 8.67412 11.7621C8.56156 11.6846 8.37396 11.647 8.11383 11.647H7.41847V12.8201H8.07631C8.27891 12.8201 8.43149 12.8001 8.54155 12.7626C8.64911 12.7251 8.72665 12.6651 8.77417 12.585C8.82169 12.505 8.84421 12.3799 8.84421 12.2123ZM8.99428 15.2689L7.8712 13.6031H7.41597V15.2689H6.52051V10.8691H8.11883C8.68412 10.8691 9.09934 10.9717 9.35947 11.1743C9.62211 11.3769 9.75218 11.7121 9.75218 12.1748C9.75218 12.55 9.67213 12.8477 9.51455 13.0703C9.35697 13.2929 9.13186 13.4355 8.84171 13.4955L10.0173 15.2664H8.99178L8.99428 15.2689Z" fill="#BCC1D1"/>
<path d="M0.853027 10.8691V11.6871H2.20623V15.2689H3.10419V11.6871H4.45739V10.8691H0.853027Z" fill="#BCC1D1"/>
<path d="M13.2769 13.588H14.4625L13.8697 11.7696L13.2744 13.588H13.2769ZM11.8462 15.2689L13.3019 10.8691H14.4675L15.9258 15.2689H15.0078L14.7152 14.3759H13.0218L12.7367 15.2689H11.8462Z" fill="#BCC1D1"/>
<path d="M25.7489 15.2689L24.5308 13.4305L24.2656 13.7381V15.2689H23.3677V10.8691H24.2656V12.585L25.7064 10.8691H26.7519L25.1111 12.7626L26.8695 15.2689H25.7489Z" fill="#BCC1D1"/>
<path d="M29.3057 15.2689V10.8691H32.1621V11.6595H30.2011V12.5975H31.8545V13.3929H30.2011V14.4485H32.1621V15.2689H29.3057Z" fill="#BCC1D1"/>
<path d="M36.9239 12.2123C36.9239 11.9872 36.8663 11.8371 36.7538 11.7621C36.6412 11.6846 36.4536 11.647 36.1935 11.647H35.4981V12.8201H36.156C36.3561 12.8201 36.5111 12.8001 36.6187 12.7626C36.7263 12.7251 36.8038 12.6651 36.8513 12.585C36.8988 12.505 36.9239 12.3799 36.9239 12.2123ZM37.0714 15.2689L35.9484 13.6031H35.4931V15.2689H34.5977V10.8691H36.196C36.7613 10.8691 37.1765 10.9717 37.4366 11.1743C37.6993 11.3769 37.8293 11.7121 37.8293 12.1748C37.8293 12.55 37.7493 12.8477 37.5917 13.0703C37.4341 13.2929 37.209 13.4355 36.9189 13.4955L38.0945 15.2664H37.0664L37.0714 15.2689Z" fill="#BCC1D1"/>
<path d="M19.5023 14.6812C18.6869 14.6812 18.024 14.0208 18.024 13.2029C18.024 12.385 18.6844 11.7246 19.5023 11.7246C19.7599 11.7246 20.0025 11.7897 20.2126 11.9072L21.0406 11.447C20.6279 11.0868 20.0926 10.8667 19.5023 10.8667C18.2116 10.8667 17.1636 11.9147 17.1636 13.2054C17.1636 13.7957 17.3812 14.3335 17.7414 14.7437L17.7514 14.7562C17.8139 14.8262 17.8789 14.8938 17.949 14.9538L19.4973 16.5046L21.0306 14.9738C21.0581 14.9513 21.0806 14.9238 21.1056 14.9013L20.2927 14.451C20.0626 14.5961 19.7924 14.6837 19.4998 14.6837" fill="#BCC1D1"/>
<path d="M21.058 20.3515C21.1006 20.3015 21.1481 20.254 21.1981 20.2114L22.4563 19.1509V17.9678H19.4697V19.8337C20.03 19.8988 20.5653 20.0789 21.058 20.3515Z" fill="#044D80"/>
<path d="M25.1224 20.684L25.3075 21.6145C25.385 21.9997 25.2849 22.3974 25.0348 22.7001C24.8197 22.9602 24.5195 23.1253 24.1919 23.1678L23.7642 24.2784C24.0543 25.1738 24.2644 25.7541 24.412 26.1293L26.4956 25.2914V20.2988L25.1249 20.684H25.1224Z" fill="#044D80"/>
<path d="M17.3957 25.2389H17.976C18.0336 25.2389 18.0811 25.2839 18.0811 25.3414C18.0811 25.7867 18.0811 27.5176 18.0811 27.5176C17.846 27.5426 17.3082 27.2824 17.2582 27.2524C16.6379 26.9147 16.1301 26.3144 15.865 25.6566C15.042 23.6105 16.3027 21.3219 18.4763 20.9867C20.5073 20.674 22.0006 22.2448 22.5009 24.0783C22.5084 24.1033 22.5134 24.1283 22.5209 24.1508C23.2938 26.5971 23.6715 27.3925 23.8391 27.5176C23.9641 27.7052 23.4214 27.7902 22.8561 27.2449C22.2908 26.6996 21.7905 24.9862 21.3928 24.0233C21.0226 23.1278 20.6474 22.2548 19.6144 22.0222C18.814 21.8421 17.871 22.0572 17.2832 22.6475C16.6604 23.2729 16.5078 24.2459 16.7554 25.0713C16.8104 25.2539 16.883 25.434 16.9855 25.5941C17.0231 25.6541 17.2932 25.9042 17.2932 25.9442V25.3389C17.2932 25.2814 17.3407 25.2339 17.3982 25.2339L17.3957 25.2389Z" fill="#18469C"/>
<path d="M20.0152 23.0854H20.5529C20.6105 23.0854 20.658 23.133 20.658 23.1905V25.9919C20.658 25.9919 21.0857 25.6068 21.2583 25.194C21.2608 25.1865 21.2708 25.1865 21.2733 25.194L21.726 26.2021C21.726 26.2021 20.9832 27.5202 19.9126 27.5202V23.1905C19.9126 23.133 19.9601 23.0854 20.0177 23.0854H20.0152Z" fill="#EF4933"/>
<path d="M22.3106 22.2074L22.5408 21.5796L21.983 21.3645C21.8679 21.3195 21.8404 21.1669 21.9354 21.0868L23.5588 19.7186C23.6363 19.6536 23.7564 19.6961 23.7764 19.7937L24.1816 21.8372C24.2066 21.9573 24.0916 22.0598 23.974 22.0248L23.4587 21.8722L22.8309 23.5031L22.3081 22.2074H22.3106Z" fill="#EF4933"/>
<path d="M18.7924 24.3062H19.2652C19.3552 24.3062 19.4277 24.3787 19.4277 24.4687V27.6654H18.6323V24.4687C18.6323 24.3787 18.7049 24.3062 18.7949 24.3062H18.7924Z" fill="#3A3A3A"/>
<path d="M18.2994 19.8538C18.5295 19.8188 18.7621 19.8013 18.9872 19.8013C19.1498 19.8013 19.3099 19.8113 19.4675 19.8313V17.9653H16.481V20.5617C17.0187 20.2015 17.6366 19.9564 18.2969 19.8538H18.2994Z" fill="#248AB9"/>
<path d="M14.7997 26.0869C14.2695 24.7712 14.367 23.3105 15.0649 22.0848C15.2475 21.7647 15.4651 21.4745 15.7102 21.2144L12.4435 20.2989V22.5451L3.83908 20.1338L0.852539 19.2959V20.6091L12.4435 25.2915L14.8848 26.2745C14.8573 26.212 14.8247 26.1494 14.7997 26.0869Z" fill="#248AB9"/>
</svg>
