<svg width="53" height="30" viewBox="0 0 53 30" fill="none" xmlns="http://www.w3.org/2000/svg">
<path d="M10.6594 20.7466L8.96812 25.1823L6.92875 20.7466H5.50966L3.58631 25.1734L1.77899 20.7466H0.453613L3.08204 27.427H4.09504L6.22367 22.478L8.45939 27.427H9.47239L11.9848 20.7466H10.6594Z" fill="#D9D9D9"/>
<path d="M12.9307 27.4315V18.5645H14.1757V20.7511H18.2321C18.6382 20.7511 18.9908 20.8984 19.2853 21.1884C19.5798 21.4785 19.7271 21.831 19.7271 22.2505V27.4315H18.4821V22.4201C18.4821 22.2505 18.4553 22.1389 18.3973 22.0809C18.3393 22.0229 18.2277 21.9961 18.0581 21.9961H14.6041C14.4345 21.9961 14.323 22.0229 14.265 22.0809C14.2069 22.1389 14.1802 22.2505 14.1802 22.4201V27.4315H12.9351H12.9307Z" fill="#D9D9D9"/>
<path d="M21.8339 23.5495H26.1313V22.4204C26.1313 22.2509 26.1046 22.1393 26.051 22.0813C25.9975 22.0233 25.8859 21.9965 25.7163 21.9965H22.2623C22.0927 21.9965 21.9812 22.0233 21.9232 22.0813C21.8651 22.1393 21.8384 22.2509 21.8384 22.4204V23.5495H21.8339ZM22.0883 27.4319C21.6733 27.4319 21.3207 27.2846 21.0262 26.9945C20.7361 26.7045 20.5889 26.3475 20.5889 25.9369V22.2509C20.5889 21.8359 20.7361 21.4833 21.0262 21.1888C21.3163 20.8987 21.6733 20.7515 22.0883 20.7515H25.8903C26.3054 20.7515 26.6579 20.8987 26.9524 21.1888C27.2425 21.4788 27.3898 21.8314 27.3898 22.2509V24.7142H21.8384V25.7629C21.8384 25.9325 21.8651 26.044 21.9232 26.102C21.9812 26.16 22.0927 26.1868 22.2623 26.1868H27.3898V27.4319H22.0927H22.0883Z" fill="#D9D9D9"/>
<path d="M29.6293 23.5495H33.9267V22.4204C33.9267 22.2509 33.9 22.1393 33.8464 22.0813C33.7929 22.0233 33.6813 21.9965 33.5117 21.9965H30.0577C29.8882 21.9965 29.7766 22.0233 29.7186 22.0813C29.6606 22.1393 29.6338 22.2509 29.6338 22.4204V23.5495H29.6293ZM29.8837 27.4319C29.4687 27.4319 29.1161 27.2846 28.8216 26.9945C28.5315 26.7045 28.3843 26.3475 28.3843 25.9369V22.2509C28.3843 21.8359 28.5315 21.4833 28.8216 21.1888C29.1117 20.8987 29.4687 20.7515 29.8837 20.7515H33.6858C34.1008 20.7515 34.4533 20.8987 34.7479 21.1888C35.0379 21.4788 35.1852 21.8314 35.1852 22.2509V24.7142H29.6338V25.7629C29.6338 25.9325 29.6606 26.044 29.7186 26.102C29.7766 26.16 29.8882 26.1868 30.0577 26.1868H35.1852V27.4319H29.8881H29.8837Z" fill="#D9D9D9"/>
<path d="M37.6347 27.4315C37.2197 27.4315 36.8671 27.2842 36.5726 26.9942C36.2825 26.7041 36.1353 26.3471 36.1353 25.9366V18.5645H37.3803V25.7625C37.3803 25.9321 37.4071 26.0437 37.4651 26.1017C37.5231 26.1597 37.6347 26.1865 37.8042 26.1865H38.8753V27.4315H37.6302H37.6347Z" fill="#D9D9D9"/>
<path d="M40.8266 23.5495H45.124V22.4204C45.124 22.2509 45.0972 22.1393 45.0437 22.0813C44.9901 22.0233 44.8786 21.9965 44.709 21.9965H41.255C41.0854 21.9965 40.9739 22.0233 40.9158 22.0813C40.8578 22.1393 40.8311 22.2509 40.8311 22.4204V23.5495H40.8266ZM41.081 27.4319C40.6659 27.4319 40.3134 27.2846 40.0189 26.9945C39.7288 26.7045 39.5815 26.3475 39.5815 25.9369V22.2509C39.5815 21.8359 39.7288 21.4833 40.0189 21.1888C40.3089 20.8987 40.6659 20.7515 41.081 20.7515H44.883C45.298 20.7515 45.6506 20.8987 45.9451 21.1888C46.2352 21.4788 46.3824 21.8314 46.3824 22.2509V24.7142H40.8311V25.7629C40.8311 25.9325 40.8578 26.044 40.9158 26.102C40.9739 26.16 41.0854 26.1868 41.255 26.1868H46.3824V27.4319H41.0854H41.081Z" fill="#D9D9D9"/>
<path d="M47.5059 27.4319V22.2509C47.5059 21.8359 47.6531 21.4833 47.9432 21.1888C48.2333 20.8987 48.5903 20.7515 49.0053 20.7515H52.7359V21.9965H49.1748C49.0053 21.9965 48.8937 22.0233 48.8357 22.0813C48.7777 22.1393 48.7509 22.2509 48.7509 22.4204V27.4319H47.5059Z" fill="#D9D9D9"/>
<path d="M3.00684 29.0561L47.2528 29.6764C47.6678 29.6764 48.0204 29.5291 48.3149 29.2391C48.605 28.949 48.7522 28.5965 48.7522 28.1815V27.9048H47.5072V28.0119C47.5072 28.1815 47.4759 28.293 47.4224 28.351C47.3644 28.4091 47.2528 28.4358 47.0832 28.4358L3.00684 29.0561Z" fill="#FF9500"/>
<path d="M26.5905 13.3925C23.8683 13.3925 21.646 11.1701 21.646 8.44799C21.646 7.6492 21.8379 6.88164 22.1949 6.20334C22.2886 6.01145 22.3957 5.8151 22.5251 5.63659C22.543 5.60536 22.5653 5.57858 22.5876 5.54734C22.6278 5.49379 22.6679 5.43578 22.7126 5.38223C23.614 4.23536 25.0152 3.49012 26.5905 3.49012C28.1658 3.49012 29.5759 4.22643 30.4774 5.38223C30.5175 5.43131 30.5577 5.48487 30.5934 5.53396C30.6246 5.57412 30.6559 5.61874 30.6871 5.66337C30.8031 5.83294 30.9058 6.01145 30.9995 6.18995C31.3476 6.86826 31.5484 7.63135 31.5484 8.44799C31.5484 11.1701 29.326 13.3925 26.595 13.3925M26.595 0.870605C22.4091 0.870605 19.0176 4.26214 19.0176 8.44799C19.0176 12.6338 22.4091 16.0209 26.595 16.0209C30.7808 16.0209 34.1679 12.6294 34.1679 8.44799C34.1679 4.2666 30.7764 0.870605 26.595 0.870605Z" fill="#FF9500"/>
<path d="M30.6601 6.97104C30.602 6.78361 30.5217 6.60065 30.428 6.42661L28.5359 11.621L26.6125 6.8327L24.6892 11.621L22.7882 6.4043C22.6855 6.58726 22.6007 6.78361 22.5249 6.98889C22.3553 7.4396 22.2705 7.93941 22.2705 8.4526C22.2705 10.8356 24.2117 12.7768 26.5947 12.7768C28.9777 12.7768 30.9323 10.8356 30.9323 8.4526C30.9323 7.93941 30.8341 7.4396 30.6645 6.9755" fill="#18469C"/>
<path d="M26.609 5.05634L28.5323 9.82232L29.9648 5.73465C29.1705 4.74397 27.9522 4.11475 26.5866 4.11475C25.2211 4.11475 24.0252 4.73504 23.2397 5.71233L24.6811 9.82232L26.6045 5.05634H26.609Z" fill="#18469C"/>
</svg>
